<?xml version="1.0" encoding="UTF-8" standalone="no"?>
<!-- Created with Inkscape (http://www.inkscape.org/) -->

<svg
   xmlns:dc="http://purl.org/dc/elements/1.1/"
   xmlns:cc="http://creativecommons.org/ns#"
   xmlns:rdf="http://www.w3.org/1999/02/22-rdf-syntax-ns#"
   xmlns:svg="http://www.w3.org/2000/svg"
   xmlns="http://www.w3.org/2000/svg"
   xmlns:xlink="http://www.w3.org/1999/xlink"
   xmlns:sodipodi="http://sodipodi.sourceforge.net/DTD/sodipodi-0.dtd"
   xmlns:inkscape="http://www.inkscape.org/namespaces/inkscape"
   width="210mm"
   height="297mm"
   id="svg2"
   version="1.1"
   inkscape:version="0.48.2 r9819"
   sodipodi:docname="Nouveau document 1">
  <defs
     id="defs4">
    <linearGradient
       id="linearGradient3813">
      <stop
         style="stop-color:#eb0000;stop-opacity:1;"
         offset="0"
         id="stop3815" />
      <stop
         style="stop-color:#b90000;stop-opacity:1;"
         offset="1"
         id="stop3817" />
    </linearGradient>
    <radialGradient
       inkscape:collect="always"
       xlink:href="#linearGradient3813"
       id="radialGradient3819"
       cx="230.40717"
       cy="291.32812"
       fx="230.40717"
       fy="291.32812"
       r="127.5"
       gradientUnits="userSpaceOnUse"
       gradientTransform="translate(91.434747,-10.351103)" />
  </defs>
  <sodipodi:namedview
     id="base"
     pagecolor="#ffffff"
     bordercolor="#666666"
     borderopacity="1.0"
     inkscape:pageopacity="0.0"
     inkscape:pageshadow="2"
     inkscape:zoom="1"
     inkscape:cx="369.73835"
     inkscape:cy="640.62192"
     inkscape:document-units="px"
     inkscape:current-layer="layer1"
     showgrid="false"
     inkscape:window-width="1038"
     inkscape:window-height="828"
     inkscape:window-x="0"
     inkscape:window-y="0"
     inkscape:window-maximized="0" />
  <metadata
     id="metadata7">
    <rdf:RDF>
      <cc:Work
         rdf:about="">
        <dc:format>image/svg+xml</dc:format>
        <dc:type
           rdf:resource="http://purl.org/dc/dcmitype/StillImage" />
        <dc:title></dc:title>
      </cc:Work>
    </rdf:RDF>
  </metadata>
  <g
     inkscape:label="Calque 1"
     inkscape:groupmode="layer"
     id="layer1">
    <path
       style="fill:url(#radialGradient3819);fill-opacity:1;stroke:#a30000;stroke-width:4.69999886;stroke-miterlimit:4;stroke-opacity:1;stroke-dasharray:none"
       d="m 214.40442,153.47702 c -11.11112,0 -20.0625,10.19692 -20.0625,22.875 l 0,209.25 c 0,12.67808 8.95138,22.875 20.0625,22.875 51.95603,-0.54468 106.77087,0 160.5625,0 0.1449,-1.17524 0.21873,-2.40316 0.21875,-3.65625 -1.7e-4,-8.35455 -2.72873,-14.77704 -8.21875,-19.3125 -5.37099,-4.53528 -16.17454,-8.60684 -32.40625,-12.1875 l -26.6875,-5.90625 c -26.73491,-5.72877 -46.30621,-14.84292 -58.71875,-27.375 -12.29328,-12.5318 -18.43753,-29.44269 -18.4375,-50.6875 -3e-5,-26.61526 8.59454,-47.08378 25.78125,-61.40625 17.18661,-14.32196 41.89989,-21.46848 74.125,-21.46875 14.68014,2.7e-4 29.76535,1.13883 45.28125,3.40625 15.51556,2.1486 31.56613,5.42799 48.15625,9.84375 l 0,56.5625 c -14.68049,-6.56415 -29.00477,-11.50168 -42.96875,-14.84375 -13.96434,-3.34163 -27.15005,-5.03103 -39.5625,-5.03125 -16.47068,2.2e-4 -28.65413,2.27735 -36.53125,6.8125 -7.87732,4.53558 -11.81259,11.57705 -11.8125,21.125 -9e-5,7.1613 2.62342,12.75472 7.875,16.8125 5.37073,3.93879 15.03571,7.35447 29,10.21875 l 29.375,5.90625 c 29.71844,5.96775 50.84284,15.045 63.375,27.21875 12.53172,12.17402 18.78101,29.46819 18.78125,51.90625 -2e-5,2.53614 -0.0576,5.01266 -0.1875,7.4375 4.83082,-4.17116 7.9375,-10.77397 7.9375,-18.25 l 0,-209.25 c 0,-12.67808 -8.95138,-22.875 -20.0625,-22.875 z"
       id="rect2985"
       inkscape:connector-curvature="0"
       sodipodi:nodetypes="ssscccccccscccccccccccccccssss" />
  </g>
</svg>
