<?xml version="1.0" encoding="UTF-8" standalone="no"?>
<!-- Created with Inkscape (http://www.inkscape.org/) -->
<svg xmlns:dc="http://purl.org/dc/elements/1.1/" xmlns:cc="http://creativecommons.org/ns#" xmlns:rdf="http://www.w3.org/1999/02/22-rdf-syntax-ns#" xmlns:svg="http://www.w3.org/2000/svg" xmlns="http://www.w3.org/2000/svg" xmlns:xlink="http://www.w3.org/1999/xlink" xmlns:sodipodi="http://sodipodi.sourceforge.net/DTD/sodipodi-0.dtd" xmlns:inkscape="http://www.inkscape.org/namespaces/inkscape" width="199.56915" height="351.12128" id="svg2" version="1.1" inkscape:version="0.48.1 r9760" sodipodi:docname="Zombie Crossing.svg" inkscape:export-filename="C:\Documents and Settings\Propietario\Mis documentos\Diseños\Inkscape\There She Is - Forbidden.png" inkscape:export-xdpi="90" inkscape:export-ydpi="90">
  <defs id="defs4">
    <linearGradient id="linearGradient6640">
      <stop style="stop-color:#ffffff;stop-opacity:1" offset="0" id="stop6642"/>
      <stop style="stop-color:#ffffff;stop-opacity:0;" offset="1" id="stop6644"/>
    </linearGradient>
    <linearGradient inkscape:collect="always" id="linearGradient6626">
      <stop style="stop-color:#666666;stop-opacity:1" offset="0" id="stop6628"/>
      <stop id="stop6634" offset="0.73863631" style="stop-color:#cccccc;stop-opacity:1"/>
      <stop style="stop-color:#b3b3b3;stop-opacity:1" offset="1" id="stop6630"/>
    </linearGradient>
    <inkscape:perspective sodipodi:type="inkscape:persp3d" inkscape:vp_x="0 : 526.18109 : 1" inkscape:vp_y="0 : 1000 : 0" inkscape:vp_z="744.09448 : 526.18109 : 1" inkscape:persp3d-origin="372.04724 : 350.78739 : 1" id="perspective10"/>
    <inkscape:perspective id="perspective2824" inkscape:persp3d-origin="0.5 : 0.33333333 : 1" inkscape:vp_z="1 : 0.5 : 1" inkscape:vp_y="0 : 1000 : 0" inkscape:vp_x="0 : 0.5 : 1" sodipodi:type="inkscape:persp3d"/>
    <inkscape:perspective id="perspective3629" inkscape:persp3d-origin="0.5 : 0.33333333 : 1" inkscape:vp_z="1 : 0.5 : 1" inkscape:vp_y="0 : 1000 : 0" inkscape:vp_x="0 : 0.5 : 1" sodipodi:type="inkscape:persp3d"/>
    <inkscape:perspective id="perspective3653" inkscape:persp3d-origin="0.5 : 0.33333333 : 1" inkscape:vp_z="1 : 0.5 : 1" inkscape:vp_y="0 : 1000 : 0" inkscape:vp_x="0 : 0.5 : 1" sodipodi:type="inkscape:persp3d"/>
    <inkscape:perspective id="perspective3686" inkscape:persp3d-origin="0.5 : 0.33333333 : 1" inkscape:vp_z="1 : 0.5 : 1" inkscape:vp_y="0 : 1000 : 0" inkscape:vp_x="0 : 0.5 : 1" sodipodi:type="inkscape:persp3d"/>
    <inkscape:perspective id="perspective3733" inkscape:persp3d-origin="0.5 : 0.33333333 : 1" inkscape:vp_z="1 : 0.5 : 1" inkscape:vp_y="0 : 1000 : 0" inkscape:vp_x="0 : 0.5 : 1" sodipodi:type="inkscape:persp3d"/>
    <inkscape:perspective id="perspective3760" inkscape:persp3d-origin="0.5 : 0.33333333 : 1" inkscape:vp_z="1 : 0.5 : 1" inkscape:vp_y="0 : 1000 : 0" inkscape:vp_x="0 : 0.5 : 1" sodipodi:type="inkscape:persp3d"/>
    <linearGradient inkscape:collect="always" xlink:href="#linearGradient6626" id="linearGradient6632" x1="-2409.8198" y1="777.73688" x2="-2285.3691" y2="777.73688" gradientUnits="userSpaceOnUse" gradientTransform="matrix(0.76967546,0,0,0.95032652,2054.3755,-62.962007)"/>
    <linearGradient inkscape:collect="always" xlink:href="#linearGradient6640" id="linearGradient6652" gradientUnits="userSpaceOnUse" x1="2798.825" y1="-416.56827" x2="2811.4565" y2="128.15974"/>
    <linearGradient inkscape:collect="always" xlink:href="#linearGradient6640" id="linearGradient6660" gradientUnits="userSpaceOnUse" x1="2798.825" y1="-416.56827" x2="2811.4565" y2="128.15974"/>
    <linearGradient inkscape:collect="always" xlink:href="#linearGradient6640" id="linearGradient6670" gradientUnits="userSpaceOnUse" x1="2798.825" y1="-416.56827" x2="2811.4565" y2="128.15974"/>
    <linearGradient inkscape:collect="always" xlink:href="#linearGradient6640" id="linearGradient6678" gradientUnits="userSpaceOnUse" x1="2798.825" y1="-416.56827" x2="2811.4565" y2="128.15974"/>
    <linearGradient inkscape:collect="always" xlink:href="#linearGradient6640" id="linearGradient6686" gradientUnits="userSpaceOnUse" x1="2798.825" y1="-416.56827" x2="2811.4565" y2="128.15974"/>
    <linearGradient inkscape:collect="always" xlink:href="#linearGradient6640" id="linearGradient6694" gradientUnits="userSpaceOnUse" x1="2798.825" y1="-416.56827" x2="2811.4565" y2="128.15974"/>
    <filter id="filter6709" height="1.3" width="1.3" y="-0.15000001" x="-0.15000001" inkscape:menu-tooltip="Silk carpet texture, horizontal stripes" inkscape:menu="Textures" inkscape:label="Silk carpet" color-interpolation-filters="sRGB">
      <feTurbulence id="feTurbulence6711" type="turbulence" numOctaves="2" baseFrequency="0.01 0.11" seed="10"/>
      <feColorMatrix id="feColorMatrix6713" result="result5" values="1 0 0 0 0 0 1 0 0 0 0 0 1 0 0 0 0 0 1.3 0 "/>
      <feComposite id="feComposite6715" in2="result5" in="SourceGraphic" operator="out"/>
      <feMorphology id="feMorphology6717" operator="dilate" radius="1.3" result="result3"/>
      <feTurbulence id="feTurbulence6719" numOctaves="3" baseFrequency="0.08 0.05" type="fractalNoise" seed="7" result="result6"/>
      <feGaussianBlur id="feGaussianBlur6721" stdDeviation="0.5" result="result7"/>
      <feDisplacementMap id="feDisplacementMap6723" in2="result7" in="result3" xChannelSelector="R" yChannelSelector="G" scale="3" result="result4"/>
      <feComposite id="feComposite6725" in2="result4" in="result4" k1="1" result="result2" operator="arithmetic" k2="1" k3="0" k4="0"/>
      <feBlend id="feBlend6727" in2="result4" mode="normal" in="result2"/>
    </filter>
    <linearGradient inkscape:collect="always" xlink:href="#linearGradient6626" id="linearGradient3091" gradientUnits="userSpaceOnUse" gradientTransform="matrix(0.08409563,0,0,0.10383378,-366.68863,-807.63987)" x1="-2409.8198" y1="777.73688" x2="-2285.3691" y2="777.73688"/>
  </defs>
  <sodipodi:namedview id="base" pagecolor="#ffffff" bordercolor="#666666" borderopacity="1.0" inkscape:pageopacity="0.0" inkscape:pageshadow="2" inkscape:zoom="2" inkscape:cx="318.6898" inkscape:cy="153.96312" inkscape:document-units="px" inkscape:current-layer="layer10" showgrid="false" showguides="true" inkscape:guide-bbox="true" inkscape:window-width="1920" inkscape:window-height="1022" inkscape:window-x="0" inkscape:window-y="27" inkscape:window-maximized="1" fit-margin-top="0" fit-margin-left="0" fit-margin-right="0" fit-margin-bottom="0"/>
  <metadata id="metadata7">
    <rdf:RDF>
      <cc:Work rdf:about="">
        <dc:format>image/svg+xml</dc:format>
        <dc:type rdf:resource="http://purl.org/dc/dcmitype/StillImage"/>
        <dc:title/>
      </cc:Work>
    </rdf:RDF>
  </metadata>
  <g inkscape:groupmode="layer" id="layer7" inkscape:label="Probibido" style="display:inline" transform="translate(663.65718,898.98468)"/>
  <g inkscape:groupmode="layer" id="layer9" inkscape:label="Fondo Blanco Prohibido" style="display:inline" transform="translate(663.65718,898.98468)"/>
  <g inkscape:groupmode="layer" id="layer2" inkscape:label="Señal" style="display:inline" transform="translate(663.65718,898.98468)"/>
  <g inkscape:groupmode="layer" id="layer3" inkscape:label="Rectanculo Interior" style="display:inline" transform="translate(663.65718,898.98468)"/>
  <g inkscape:groupmode="layer" id="layer10" inkscape:label="Corazón" style="display:inline" transform="translate(663.65718,898.98468)">
    <rect style="fill:#000000;fill-opacity:1;fill-rule:nonzero;stroke:none;display:inline" id="rect6601" width="94.874428" height="2.4722977" x="-611.31042" y="-689.71045"/>
    <rect y="-667.45978" x="-590.60492" height="2.4722977" width="53.46344" id="rect6603" style="fill:#000000;fill-opacity:1;fill-rule:nonzero;stroke:none;display:inline"/>
    <path style="fill:url(#linearGradient3091);fill-opacity:1;fill-rule:nonzero;stroke:none;display:inline" d="m -566.71674,-898.98468 5.68703,0 c 1.71903,0 3.10294,2.31549 3.10294,5.19169 l 0,344.97701 c -3.95889,1.06078 -6.43094,1.46353 -11.89291,0 l 0,-344.97701 c 0,-2.8762 1.38391,-5.19169 3.10294,-5.19169 z" id="rect6624" inkscape:connector-curvature="0" sodipodi:nodetypes="sssccss"/>
    <rect style="fill:#ffda00;fill-opacity:1;stroke:#000000;stroke-width:1.4639591;stroke-linejoin:miter;stroke-miterlimit:4;stroke-opacity:1;stroke-dasharray:none;display:inline" id="rect3670" width="149.96988" height="149.96988" x="833.83856" y="35.686661" rx="16.685699" ry="16.685699" transform="matrix(-0.70647356,-0.70773943,0.70647356,-0.70773943,0,0)"/>
    <rect style="fill:#ffda00;fill-opacity:1;stroke:#000000;stroke-width:2.91561794;stroke-linejoin:miter;stroke-miterlimit:4;stroke-opacity:1;stroke-dasharray:none;display:inline" id="rect3670-1" width="131.29036" height="131.29036" x="843.5141" y="47.725517" rx="10.745496" ry="10.745496" transform="matrix(-0.70857166,-0.70563887,0.70857166,-0.70563887,0,0)"/>
    <rect style="fill:#ffda00;fill-opacity:1;fill-rule:nonzero;stroke:#000000;stroke-width:1.12632179;stroke-miterlimit:4;stroke-dasharray:none;display:inline" id="rect6431" width="139.32866" height="54.193535" x="-633.53754" y="-617.04797" rx="4.0315013" ry="5.463058"/>
    <rect ry="4.5167017" rx="3.7442551" y="-612.35406" x="-628.57397" height="44.805679" width="129.40146" id="rect6433" style="fill:#ffda00;fill-opacity:1;fill-rule:nonzero;stroke:#000000;stroke-width:2.34657168;stroke-miterlimit:4;stroke-dasharray:none;display:inline"/>
    <g style="font-size:26.1180706px;font-style:normal;font-variant:normal;font-weight:normal;font-stretch:normal;text-align:center;line-height:83.99999738%;letter-spacing:0px;word-spacing:0px;text-anchor:middle;fill:#000000;fill-opacity:1;stroke:none;display:inline;font-family:Coolvetica;-inkscape-font-specification:Coolvetica" id="text6435">
      <path d="m -604.67455,-592.2627 0,-3.08193 9.01073,-11.23077 -8.74955,0 0,-3.02969 13.2941,0 0,2.84687 -9.06297,11.41359 9.06297,0 0,3.08193 -13.55528,0" style="" id="path3096"/>
      <path d="m -582.94554,-594.77003 c 0.64424,0 1.25366,-0.11318 1.82827,-0.33954 0.57458,-0.24376 1.07082,-0.60071 1.48873,-1.07084 0.43528,-0.48753 0.77482,-1.10566 1.0186,-1.85438 0.24376,-0.74871 0.36564,-1.63672 0.36565,-2.66404 -10e-6,-2.05461 -0.40049,-3.61299 -1.20143,-4.67514 -0.80096,-1.06212 -1.96757,-1.59318 -3.49982,-1.5932 -1.53227,2e-5 -2.70758,0.53108 -3.52594,1.5932 -0.81837,1.06215 -1.22755,2.62053 -1.22755,4.67514 0,2.05463 0.40918,3.56077 1.22755,4.51842 0.83577,0.94026 2.01109,1.41038 3.52594,1.41038 m 0,3.10805 c -2.68146,0 -4.74479,-0.78354 -6.18998,-2.35063 -1.42779,-1.56708 -2.14168,-3.82193 -2.14168,-6.76458 0,-1.4626 0.18282,-2.77721 0.54848,-3.94382 0.36565,-1.1666 0.90542,-2.15038 1.61932,-2.95135 0.71389,-0.81835 1.58449,-1.43647 2.6118,-1.85438 1.02731,-0.43528 2.21133,-0.65293 3.55206,-0.65295 1.32331,2e-5 2.49862,0.21767 3.52594,0.65295 1.04471,0.41791 1.91531,1.03603 2.61181,1.85438 0.69646,0.81838 1.22753,1.81958 1.5932,3.00358 0.36564,1.16662 0.54846,2.48993 0.54848,3.96995 -2e-5,2.99488 -0.71391,5.24973 -2.14168,6.76458 -1.41039,1.51485 -3.45631,2.27227 -6.13775,2.27227" style="" id="path3098"/>
      <path d="m -560.19752,-592.2627 0,-11.88372 -3.23864,11.88372 -3.60429,0 -3.21252,-11.83148 0,11.83148 -3.36923,0 0,-17.34239 5.32808,0 3.13417,12.7195 3.13417,-12.7195 5.22361,0 0,17.34239 -3.39535,0" style="" id="path3100"/>
      <path d="m -547.4674,-595.21404 c 0.83576,10e-6 1.48871,-0.23506 1.95885,-0.70519 0.47011,-0.47012 0.70518,-1.06213 0.70519,-1.77602 -10e-6,-0.76613 -0.23508,-1.32331 -0.70519,-1.67156 -0.45272,-0.34823 -1.08826,-0.52235 -1.90662,-0.52236 l -4.64902,0 0,4.67513 4.59679,0 m -4.59679,-11.38748 0,3.76101 4.57067,0 c 1.4626,10e-6 2.1939,-0.62683 2.19392,-1.8805 -2e-5,-0.66165 -0.19155,-1.14048 -0.5746,-1.4365 -0.36567,-0.29599 -0.97509,-0.44399 -1.82827,-0.44401 l -4.36172,0 m -3.49982,14.33882 0,-17.34239 8.54061,0 c 1.70637,10e-6 3.00357,0.42661 3.89159,1.27978 0.88801,0.83579 1.33201,1.98499 1.33203,3.44759 -2e-5,0.74873 -0.20026,1.41909 -0.60072,2.01109 -0.40049,0.57461 -0.90544,0.98379 -1.51485,1.22755 0.36564,0.1393 0.70518,0.32213 1.01861,0.54848 0.33081,0.20895 0.60941,0.48754 0.83578,0.83578 0.24375,0.33083 0.43528,0.73131 0.57459,1.20143 0.13928,0.45272 0.20893,0.99249 0.20895,1.61932 -2e-5,1.5845 -0.53108,2.84687 -1.5932,3.78712 -1.06215,0.92284 -2.69018,1.38425 -4.88408,1.38425 l -7.80931,0" style="line-height:83.99999738%" id="path3102"/>
      <path d="m -540.61753,-592.2627 0,-17.34239 3.63041,0 0,17.34239 -3.63041,0" style="line-height:83.99999738%" id="path3104"/>
      <path d="m -535.82242,-592.2627 0,-17.34239 12.74562,0 0,3.02969 -9.21968,0 0,3.70877 8.48837,0 0,3.05581 -8.48837,0 0,4.46619 9.63757,0 0,3.08193 -13.16351,0" style="line-height:83.99999738%" id="path3106"/>
      <path d="m -605.24854,-576.27844 c -0.19154,0.99249 -0.49625,1.88921 -0.91413,2.69016 -0.4179,0.80096 -0.94897,1.48874 -1.5932,2.06333 -0.62685,0.5746 -1.35815,1.01861 -2.19392,1.33202 -0.83579,0.31342 -1.75862,0.47013 -2.76851,0.47013 -1.13179,0 -2.19393,-0.19153 -3.18641,-0.5746 -0.97508,-0.38306 -1.81956,-0.95766 -2.53345,-1.72379 -0.7139,-0.76613 -1.27979,-1.70638 -1.69768,-2.82075 -0.40047,-1.13178 -0.60071,-2.44639 -0.60071,-3.94383 0,-1.4626 0.18282,-2.77721 0.54848,-3.94383 0.38306,-1.18401 0.92283,-2.17649 1.61932,-2.97746 0.69648,-0.81835 1.54096,-1.44518 2.53345,-1.8805 1.00989,-0.43528 2.13297,-0.65294 3.36923,-0.65295 1.07954,10e-6 2.05461,0.16543 2.92523,0.49624 0.888,0.31343 1.64542,0.75744 2.27227,1.33202 0.64423,0.5572 1.14918,1.21886 1.51485,1.98498 0.38305,0.76614 0.61811,1.5845 0.70518,2.45509 l -3.63041,0 c -0.24378,-0.99247 -0.7139,-1.7586 -1.41037,-2.29839 -0.69649,-0.55717 -1.48004,-0.83576 -2.35063,-0.83577 -1.51485,1e-5 -2.62922,0.54849 -3.34311,1.64543 -0.7139,1.07956 -1.07085,2.56829 -1.07084,4.46619 -10e-6,1.93275 0.34823,3.43889 1.04472,4.51843 0.71389,1.06214 1.77602,1.5932 3.1864,1.5932 1.07954,0 1.94144,-0.28729 2.58569,-0.86189 0.66165,-0.59201 1.11436,-1.43649 1.35814,-2.53346 l 3.63041,0" style="line-height:83.99999738%" id="path3108"/>
      <path d="m -601.13698,-584.66234 0,4.6229 4.54454,0 c 0.97507,10e-6 1.66284,-0.21764 2.06333,-0.65295 0.40047,-0.43529 0.60071,-0.98377 0.60072,-1.64544 -10e-6,-0.67906 -0.20025,-1.23624 -0.60072,-1.67156 -0.38307,-0.43528 -1.02732,-0.65293 -1.93274,-0.65295 l -4.67513,0 m 6.58175,14.33882 0,-4.46619 c -10e-6,-0.83577 -0.19154,-1.42778 -0.57459,-1.77603 -0.38308,-0.36564 -1.09697,-0.54847 -2.14169,-0.54848 l -3.86547,0 0,6.7907 -3.52594,0 0,-17.3424 8.80179,0 c 0.80094,2e-5 1.52354,0.13061 2.1678,0.39178 0.66165,0.24378 1.22754,0.59202 1.69767,1.04472 0.47012,0.43531 0.82706,0.96638 1.07085,1.5932 0.26116,0.60944 0.39175,1.27109 0.39177,1.98497 -2e-5,0.94027 -0.22637,1.77604 -0.67907,2.50734 -0.43532,0.7139 -1.07086,1.21885 -1.90662,1.51485 0.76611,0.24377 1.30589,0.61813 1.61932,1.12307 0.33081,0.50496 0.49623,1.26238 0.49624,2.27228 l 0,4.91019 -3.55206,0" style="line-height:83.99999738%" id="path3110"/>
      <path d="m -581.54271,-572.83085 c 0.64423,0 1.25365,-0.11318 1.82826,-0.33954 0.57459,-0.24376 1.07083,-0.60071 1.48873,-1.07084 0.43529,-0.48753 0.77482,-1.10566 1.01861,-1.85438 0.24375,-0.74871 0.36564,-1.63673 0.36565,-2.66404 -10e-6,-2.05461 -0.40049,-3.61299 -1.20143,-4.67514 -0.80097,-1.06212 -1.96757,-1.59319 -3.49982,-1.5932 -1.53227,1e-5 -2.70758,0.53108 -3.52594,1.5932 -0.81837,1.06215 -1.22756,2.62053 -1.22755,4.67514 -10e-6,2.05462 0.40918,3.56077 1.22755,4.51842 0.83577,0.94026 2.01108,1.41038 3.52594,1.41038 m 0,3.10805 c -2.68146,0 -4.74479,-0.78354 -6.18999,-2.35063 -1.42779,-1.56708 -2.14168,-3.82194 -2.14168,-6.76458 0,-1.4626 0.18283,-2.77721 0.54848,-3.94383 0.36565,-1.16659 0.90543,-2.15037 1.61932,-2.95134 0.71389,-0.81835 1.58449,-1.43648 2.61181,-1.85438 1.0273,-0.43528 2.21132,-0.65294 3.55206,-0.65295 1.3233,10e-6 2.49861,0.21767 3.52594,0.65295 1.04471,0.4179 1.91531,1.03603 2.6118,1.85438 0.69647,0.81838 1.22754,1.81957 1.59321,3.00358 0.36563,1.16662 0.54846,2.48993 0.54847,3.96995 -10e-6,2.99487 -0.71391,5.24973 -2.14168,6.76458 -1.41039,1.51485 -3.4563,2.27227 -6.13774,2.27227" style="line-height:83.99999738%" id="path3112"/>
      <path d="m -562.39898,-582.54677 c -0.0871,-0.88801 -0.4092,-1.54966 -0.96637,-1.98498 -0.5572,-0.43528 -1.39297,-0.65293 -2.50734,-0.65295 -2.05462,2e-5 -3.08193,0.7052 -3.08193,2.11556 0,0.50497 0.20894,0.93156 0.62683,1.27979 0.4353,0.33084 1.12307,0.60943 2.06333,0.83578 1.11436,0.26119 2.08073,0.50496 2.89911,0.7313 0.81835,0.22637 1.56707,0.48755 2.24615,0.78355 0.38305,0.15671 0.74,0.35695 1.07084,0.60071 0.34823,0.22637 0.63553,0.51367 0.8619,0.8619 0.24375,0.34825 0.43529,0.76614 0.5746,1.25367 0.13928,0.48754 0.20893,1.07955 0.20894,1.77602 -10e-6,0.83579 -0.17413,1.5758 -0.52236,2.22004 -0.34826,0.64425 -0.81838,1.19273 -1.41038,1.64544 -0.59202,0.4353 -1.2885,0.76613 -2.08944,0.99249 -0.80097,0.24376 -1.64545,0.36565 -2.53346,0.36565 -2.52475,0 -4.42266,-0.48754 -5.69373,-1.46261 -1.27109,-0.97508 -1.94145,-2.42027 -2.0111,-4.3356 l 3.49983,0 c 0.0174,0.88802 0.37435,1.5932 1.07084,2.11556 0.71388,0.50495 1.6019,0.75743 2.66404,0.75743 1.14919,0 2.01979,-0.20895 2.61181,-0.62684 0.592,-0.41788 0.888,-0.98378 0.88801,-1.69767 -10e-6,-0.27859 -0.0348,-0.53107 -0.10447,-0.75743 -0.0697,-0.24376 -0.20896,-0.46141 -0.41789,-0.65295 -0.19154,-0.19153 -0.46143,-0.35694 -0.80966,-0.49624 -0.34825,-0.1567 -0.80096,-0.296 -1.35814,-0.41789 -1.32332,-0.27859 -2.47252,-0.55718 -3.44759,-0.83578 -0.95766,-0.296 -1.74991,-0.65294 -2.37674,-1.07084 -0.62684,-0.43529 -1.08825,-0.95765 -1.38426,-1.56708 -0.296,-0.60942 -0.44401,-1.38425 -0.44401,-2.32451 0,-0.71388 0.13059,-1.38425 0.39178,-2.01109 0.26118,-0.62682 0.66165,-1.1666 1.20143,-1.61933 0.53977,-0.4701 1.20143,-0.83576 1.98497,-1.09695 0.80095,-0.27858 1.7412,-0.41788 2.82075,-0.41789 1.04472,10e-6 1.98497,0.13931 2.82075,0.41789 0.83577,0.26119 1.54966,0.64426 2.14169,1.14919 0.6094,0.48755 1.07953,1.08827 1.41037,1.80215 0.33082,0.69649 0.51364,1.47133 0.54848,2.32451 l -3.44758,0" style="line-height:83.99999738%" id="path3114"/>
      <path d="m -547.80959,-582.54677 c -0.0871,-0.88801 -0.4092,-1.54966 -0.96637,-1.98498 -0.5572,-0.43528 -1.39298,-0.65293 -2.50734,-0.65295 -2.05462,2e-5 -3.08193,0.7052 -3.08193,2.11556 0,0.50497 0.20894,0.93156 0.62683,1.27979 0.4353,0.33084 1.12307,0.60943 2.06333,0.83578 1.11436,0.26119 2.08073,0.50496 2.89911,0.7313 0.81835,0.22637 1.56707,0.48755 2.24615,0.78355 0.38305,0.15671 0.74,0.35695 1.07084,0.60071 0.34823,0.22637 0.63553,0.51367 0.8619,0.8619 0.24375,0.34825 0.43529,0.76614 0.5746,1.25367 0.13928,0.48754 0.20893,1.07955 0.20894,1.77602 -10e-6,0.83579 -0.17413,1.5758 -0.52236,2.22004 -0.34826,0.64425 -0.81838,1.19273 -1.41038,1.64544 -0.59202,0.4353 -1.2885,0.76613 -2.08944,0.99249 -0.80097,0.24376 -1.64545,0.36565 -2.53346,0.36565 -2.52475,0 -4.42266,-0.48754 -5.69373,-1.46261 -1.27109,-0.97508 -1.94145,-2.42027 -2.0111,-4.3356 l 3.49983,0 c 0.0174,0.88802 0.37435,1.5932 1.07084,2.11556 0.71388,0.50495 1.6019,0.75743 2.66404,0.75743 1.14919,0 2.01979,-0.20895 2.61181,-0.62684 0.592,-0.41788 0.888,-0.98378 0.88801,-1.69767 -10e-6,-0.27859 -0.0348,-0.53107 -0.10447,-0.75743 -0.0697,-0.24376 -0.20896,-0.46141 -0.41789,-0.65295 -0.19154,-0.19153 -0.46143,-0.35694 -0.80966,-0.49624 -0.34825,-0.1567 -0.80096,-0.296 -1.35814,-0.41789 -1.32332,-0.27859 -2.47252,-0.55718 -3.44759,-0.83578 -0.95766,-0.296 -1.74991,-0.65294 -2.37674,-1.07084 -0.62684,-0.43529 -1.08825,-0.95765 -1.38426,-1.56708 -0.296,-0.60942 -0.44401,-1.38425 -0.44401,-2.32451 0,-0.71388 0.13059,-1.38425 0.39178,-2.01109 0.26118,-0.62682 0.66165,-1.1666 1.20143,-1.61933 0.53977,-0.4701 1.20142,-0.83576 1.98497,-1.09695 0.80095,-0.27858 1.7412,-0.41788 2.82075,-0.41789 1.04472,10e-6 1.98497,0.13931 2.82075,0.41789 0.83577,0.26119 1.54966,0.64426 2.14169,1.14919 0.6094,0.48755 1.07953,1.08827 1.41037,1.80215 0.33082,0.69649 0.51364,1.47133 0.54848,2.32451 l -3.44758,0" style="" id="path3116"/>
      <path d="m -543.0406,-570.32352 0,-17.3424 3.63041,0 0,17.3424 -3.63041,0" style="" id="path3118"/>
      <path d="m -527.45872,-570.32352 -7.41754,-11.64866 0,11.64866 -3.36923,0 0,-17.3424 3.83936,0 6.89517,11.15242 0,-11.15242 3.39535,0 0,17.3424 -3.34311,0" style="" id="path3120"/>
      <path d="m -510.01348,-570.32352 -0.0784,-1.72379 c -0.4179,0.73131 -1.08826,1.3059 -2.01109,1.72379 -0.92285,0.40048 -1.98498,0.60072 -3.1864,0.60072 -1.20144,0 -2.28969,-0.25248 -3.26476,-0.75743 -0.95767,-0.52236 -1.78474,-1.21013 -2.48122,-2.06332 -0.67907,-0.8706 -1.20143,-1.86309 -1.56708,-2.97746 -0.36566,-1.13178 -0.54848,-2.29839 -0.54848,-3.49982 0,-1.27107 0.18282,-2.4638 0.54848,-3.57818 0.36565,-1.13177 0.90542,-2.11555 1.61932,-2.95134 0.71389,-0.83576 1.6019,-1.48872 2.66404,-1.95886 1.06213,-0.48752 2.29838,-0.73129 3.70877,-0.7313 1.0273,10e-6 1.98496,0.14802 2.87298,0.444 0.90542,0.29603 1.68896,0.70521 2.35063,1.22755 0.67906,0.52238 1.21883,1.14921 1.61932,1.8805 0.41787,0.71391 0.66164,1.50616 0.73131,2.37675 l -3.65653,0 c -0.0523,-0.40047 -0.19155,-0.77482 -0.41789,-1.12308 -0.22637,-0.36564 -0.51367,-0.67905 -0.8619,-0.94025 -0.34825,-0.26117 -0.75743,-0.47011 -1.22755,-0.62683 -0.45272,-0.1567 -0.92285,-0.23505 -1.41037,-0.23507 -1.46262,2e-5 -2.63794,0.5485 -3.52594,1.64544 -0.87061,1.07956 -1.30591,2.65535 -1.30591,4.72737 0,0.71391 0.0871,1.43651 0.26118,2.1678 0.19153,0.7139 0.47883,1.36685 0.8619,1.95886 0.40047,0.5746 0.90542,1.04473 1.51485,1.41038 0.60941,0.36565 1.33201,0.54848 2.1678,0.54847 0.592,1e-5 1.14048,-0.10447 1.64544,-0.31341 0.52235,-0.20894 0.97506,-0.49624 1.35814,-0.8619 0.38305,-0.36565 0.67905,-0.78354 0.88801,-1.25367 0.22634,-0.48753 0.33952,-1.00118 0.33954,-1.54096 l -3.83936,0 0,-2.89911 7.2347,0 0,9.32415 -3.00357,0" style="" id="path3122"/>
    </g>
    <rect ry="5.463058" rx="4.0315013" y="-880.18866" x="-633.53754" height="54.193535" width="139.32866" id="rect6605" style="fill:#ffda00;fill-opacity:1;fill-rule:nonzero;stroke:#000000;stroke-width:1.12632179;stroke-miterlimit:4;stroke-dasharray:none;display:inline"/>
    <rect style="fill:#ffda00;fill-opacity:1;fill-rule:nonzero;stroke:#000000;stroke-width:2.34657168;stroke-miterlimit:4;stroke-dasharray:none;display:inline" id="rect6607" width="129.40146" height="44.805679" x="-628.57397" y="-875.49469" rx="3.7442551" ry="4.5167017"/>
    <g style="font-size:22.47280884px;font-style:normal;font-variant:normal;font-weight:normal;font-stretch:normal;text-align:center;line-height:83.99999738%;letter-spacing:0px;word-spacing:0px;text-anchor:middle;fill:#000000;fill-opacity:1;stroke:none;display:inline;font-family:Coolvetica;-inkscape-font-specification:Coolvetica" id="text6609">
      <path d="m -613.19946,-854.82227 -2.3147,-9.70825 -2.35965,9.70825 -2.92146,0 -4.22489,-14.92194 3.32598,0 2.44953,9.66331 2.0675,-9.66331 3.28103,0 2.26975,9.66331 2.42707,-9.66331 3.19114,0 -4.17995,14.92194 -3.01135,0" style="" id="path3125"/>
      <path d="m -602.77594,-866.39576 -0.0225,0 -1.91019,5.93282 3.7979,0 -1.86524,-5.93282 m 3.70801,11.57349 -0.94386,-3.07877 -5.50583,0 -1.05623,3.07877 -3.3035,0 5.32606,-14.92194 3.61812,0 5.25864,14.92194 -3.3934,0" style="" id="path3127"/>
      <path d="m -594.87008,-854.82227 0,-12.31509 -4.49456,0 0,-2.60685 12.13532,0 0,2.60685 -4.51704,0 0,12.31509 -3.12372,0" style="" id="path3129"/>
      <path d="m -574.46687,-859.94607 c -0.16482,0.85397 -0.427,1.62554 -0.78655,2.3147 -0.35958,0.68917 -0.81653,1.28095 -1.37084,1.77536 -0.53936,0.4944 -1.1686,0.87643 -1.88772,1.14611 -0.71914,0.26967 -1.51318,0.40451 -2.38212,0.40451 -0.97382,0 -1.88772,-0.1648 -2.74168,-0.4944 -0.83899,-0.3296 -1.56561,-0.82401 -2.17986,-1.48321 -0.61426,-0.6592 -1.10117,-1.46822 -1.46073,-2.42706 -0.34459,-0.97382 -0.51688,-2.10495 -0.51688,-3.3934 0,-1.25846 0.15731,-2.38959 0.47193,-3.39339 0.3296,-1.01876 0.79404,-1.87272 1.39331,-2.5619 0.59928,-0.70413 1.3259,-1.24348 2.17987,-1.61804 0.86894,-0.37453 1.83527,-0.56181 2.89899,-0.56182 0.92887,10e-6 1.76785,0.14234 2.51695,0.42698 0.76407,0.26969 1.41578,0.65173 1.95514,1.14611 0.55432,0.47944 0.98879,1.04875 1.30342,1.70794 0.32959,0.65921 0.53184,1.36336 0.60677,2.11244 l -3.12372,0 c -0.20976,-0.85395 -0.61427,-1.51316 -1.21354,-1.97761 -0.59928,-0.4794 -1.27346,-0.71911 -2.02255,-0.71913 -1.30343,2e-5 -2.26227,0.47195 -2.87652,1.41579 -0.61426,0.92889 -0.92139,2.20984 -0.92138,3.84285 -10e-6,1.663 0.29963,2.95893 0.89891,3.8878 0.61425,0.91389 1.52814,1.37084 2.74168,1.37084 0.92887,0 1.67047,-0.2472 2.22481,-0.7416 0.5693,-0.50938 0.95883,-1.236 1.16859,-2.17987 l 3.12372,0" style="" id="path3131"/>
      <path d="m -565.01881,-854.82227 0,-6.69689 -5.82046,0 0,6.69689 -3.12372,0 0,-14.92194 3.12372,0 0,5.6182 5.82046,0 0,-5.6182 3.14619,0 0,14.92194 -3.14619,0" style="" id="path3133"/>
      <path d="m -550.58951,-854.82227 0,-5.64067 -5.16875,-9.28127 3.6406,0 3.14619,6.06766 2.89899,-6.06766 3.59565,0 -4.98896,9.32621 0,5.59573 -3.12372,0" style="" id="path3135"/>
      <path d="m -535.94216,-856.97966 c 0.55432,10e-6 1.07869,-0.0974 1.5731,-0.29214 0.49439,-0.20975 0.92138,-0.51687 1.28095,-0.92139 0.37454,-0.41949 0.66668,-0.95134 0.87644,-1.59557 0.20973,-0.64421 0.31461,-1.40829 0.31462,-2.29222 -10e-6,-1.76785 -0.3446,-3.10873 -1.03375,-4.02264 -0.68918,-0.91388 -1.69296,-1.37082 -3.01136,-1.37084 -1.31841,2e-5 -2.32968,0.45696 -3.03383,1.37084 -0.70415,0.91391 -1.05622,2.25479 -1.05622,4.02264 0,1.76786 0.35207,3.06379 1.05622,3.88779 0.71913,0.80903 1.7304,1.21354 3.03383,1.21353 m 0,2.67427 c -2.30721,0 -4.08256,-0.67419 -5.32605,-2.02255 -1.22852,-1.34837 -1.84277,-3.28852 -1.84277,-5.82046 0,-1.25847 0.15731,-2.3896 0.47193,-3.3934 0.31461,-1.00377 0.77905,-1.85024 1.39331,-2.53942 0.61425,-0.70414 1.36335,-1.23599 2.24728,-1.59557 0.88393,-0.37453 1.90269,-0.56181 3.0563,-0.56182 1.13862,10e-6 2.14989,0.18729 3.03383,0.56182 0.8989,0.35958 1.648,0.89143 2.24728,1.59557 0.59927,0.70416 1.05621,1.56561 1.37084,2.58437 0.31461,1.0038 0.47192,2.14242 0.47193,3.41587 -1e-5,2.57688 -0.61427,4.51703 -1.84277,5.82045 -1.21354,1.30343 -2.97391,1.95514 -5.28111,1.95514" style="" id="path3137"/>
      <path d="m -519.08825,-869.74421 3.19113,0 0,9.95545 c -10e-6,1.81281 -0.53186,3.18365 -1.59557,4.11253 -1.06372,0.91389 -2.57689,1.37084 -4.5395,1.37084 -1.81281,0 -3.25107,-0.43448 -4.31478,-1.30342 -1.04873,-0.86895 -1.5731,-2.20234 -1.5731,-4.00016 l 0,-10.13524 3.16867,0 0,9.84309 c -10e-6,0.92888 0.23221,1.66299 0.69665,2.20233 0.46444,0.53935 1.12364,0.80903 1.97761,0.80903 1.99258,0 2.98888,-0.96633 2.98889,-2.899 l 0,-9.95545" style="" id="path3139"/>
      <path d="m -511.85025,-867.15984 0,3.97769 3.91027,0 c 0.83897,10e-6 1.43076,-0.18727 1.77535,-0.56182 0.34457,-0.37454 0.51686,-0.84647 0.51687,-1.41579 -10e-6,-0.58428 -0.1723,-1.0637 -0.51687,-1.43826 -0.32961,-0.37453 -0.88394,-0.56181 -1.66299,-0.56182 l -4.02263,0 m 5.66315,12.33757 0,-3.84285 c -1e-5,-0.71912 -0.16481,-1.2285 -0.49441,-1.52815 -0.32961,-0.31461 -0.94386,-0.47192 -1.84277,-0.47193 l -3.32597,0 0,5.84293 -3.03383,0 0,-14.92194 7.57334,0 c 0.68915,10e-6 1.3109,0.11238 1.86524,0.33709 0.5693,0.20976 1.05621,0.5094 1.46073,0.89891 0.4045,0.37456 0.71163,0.83151 0.92139,1.37085 0.22471,0.52437 0.33708,1.09368 0.33709,1.70793 -10e-6,0.80903 -0.19478,1.52816 -0.58429,2.15739 -0.37456,0.61426 -0.9214,1.04874 -1.64052,1.30342 0.65919,0.20975 1.12363,0.53186 1.39331,0.96633 0.28465,0.43448 0.42698,1.08619 0.42699,1.95514 l 0,4.22488 -3.0563,0" style="" id="path3141"/>
      <path d="m -585.01417,-838.48453 c 0.71912,0 1.28094,-0.20226 1.68546,-0.60677 0.4045,-0.40451 0.60676,-0.91389 0.60677,-1.52815 -10e-6,-0.6592 -0.20227,-1.13862 -0.60677,-1.43826 -0.38954,-0.29963 -0.93638,-0.44945 -1.64052,-0.44946 l -4.00016,0 0,4.02264 3.95522,0 m -3.95522,-9.79815 0,3.23609 3.93275,0 c 1.25846,0 1.8877,-0.53934 1.88771,-1.61805 -1e-5,-0.5693 -0.16481,-0.9813 -0.4944,-1.236 -0.31463,-0.25468 -0.83899,-0.38203 -1.5731,-0.38204 l -3.75296,0 m -3.01135,12.33757 0,-14.92194 7.34861,0 c 1.46821,10e-6 2.58436,0.36707 3.34845,1.10117 0.76406,0.71914 1.1461,1.70794 1.14611,2.96641 -10e-6,0.64423 -0.17231,1.22103 -0.51688,1.7304 -0.34459,0.49441 -0.77906,0.84649 -1.30342,1.05622 0.31461,0.11987 0.60676,0.27718 0.87644,0.47193 0.28464,0.17979 0.52435,0.4195 0.71913,0.71913 0.20973,0.28467 0.37453,0.62925 0.4944,1.03375 0.11984,0.38954 0.17977,0.85397 0.17978,1.39332 -10e-6,1.36335 -0.45695,2.44954 -1.37084,3.25855 -0.9139,0.79404 -2.3147,1.19106 -4.20241,1.19106 l -6.71937,0" style="" id="path3143"/>
      <path d="m -576.0865,-848.28268 0,3.97769 3.91027,0 c 0.83898,10e-6 1.43076,-0.18727 1.77535,-0.56182 0.34458,-0.37454 0.51687,-0.84647 0.51688,-1.41579 -10e-6,-0.58428 -0.1723,-1.0637 -0.51688,-1.43826 -0.32961,-0.37453 -0.88393,-0.56181 -1.66298,-0.56182 l -4.02264,0 m 5.66315,12.33757 0,-3.84285 c -10e-6,-0.71912 -0.16481,-1.22851 -0.4944,-1.52815 -0.32961,-0.31461 -0.94387,-0.47192 -1.84277,-0.47193 l -3.32598,0 0,5.84293 -3.03383,0 0,-14.92194 7.57334,0 c 0.68916,10e-6 1.31091,0.11238 1.86524,0.33709 0.56931,0.20976 1.05622,0.5094 1.46074,0.89891 0.4045,0.37456 0.71162,0.83151 0.92138,1.37084 0.22472,0.52438 0.33708,1.09369 0.33709,1.70794 -10e-6,0.80903 -0.19477,1.52816 -0.58429,2.15739 -0.37456,0.61426 -0.92139,1.04874 -1.64051,1.30342 0.65919,0.20975 1.12363,0.53186 1.39331,0.96633 0.28464,0.43448 0.42697,1.08619 0.42698,1.95514 l 0,4.22488 -3.0563,0" style="" id="path3145"/>
      <path d="m -559.56407,-847.5186 -0.0225,0 -1.91019,5.93282 3.79791,0 -1.86525,-5.93282 m 3.70802,11.57349 -0.94386,-3.07877 -5.50584,0 -1.05622,3.07877 -3.3035,0 5.32605,-14.92194 3.61812,0 5.25864,14.92194 -3.39339,0" style="" id="path3147"/>
      <path d="m -551.86326,-835.94511 0,-14.92194 3.12372,0 0,14.92194 -3.12372,0" style="" id="path3149"/>
      <path d="m -538.45613,-835.94511 -6.38228,-10.02287 0,10.02287 -2.89899,0 0,-14.92194 3.3035,0 5.93283,9.59589 0,-9.59589 2.92146,0 0,14.92194 -2.87652,0" style="" id="path3151"/>
    </g>
    <g style="display:inline" id="g6648" transform="matrix(0.00778582,0,0,0.00778582,-580.33884,-874.84742)">
      <path transform="translate(-702.29217,-437.87043)" d="m 3088.6425,70.630074 c 0,149.961316 -121.5677,271.528996 -271.529,271.528996 -149.9613,0 -271.529,-121.56768 -271.529,-271.528996 0,-149.961322 121.5677,-271.528994 271.529,-271.528994 149.9613,0 271.529,121.567672 271.529,271.528994 z" sodipodi:ry="271.52899" sodipodi:rx="271.52899" sodipodi:cy="70.630074" sodipodi:cx="2817.1135" id="path6636" style="fill:#808080;fill-opacity:1;fill-rule:nonzero;stroke:#666666;stroke-width:23.29999924;stroke-miterlimit:4;stroke-dasharray:none" sodipodi:type="arc"/>
      <path sodipodi:type="arc" style="fill:url(#linearGradient6652);fill-opacity:1;fill-rule:nonzero;stroke:none" id="path6638" sodipodi:cx="2817.1135" sodipodi:cy="70.630074" sodipodi:rx="271.52899" sodipodi:ry="271.52899" d="m 3088.6425,70.630074 c 0,149.961316 -121.5677,271.528996 -271.529,271.528996 -149.9613,0 -271.529,-121.56768 -271.529,-271.528996 0,-149.961322 121.5677,-271.528994 271.529,-271.528994 149.9613,0 271.529,121.567672 271.529,271.528994 z" transform="matrix(0.88005501,0,0,0.79166666,-364.73666,-451.44011)"/>
    </g>
    <g style="display:inline" transform="matrix(0.00778582,0,0,0.00778582,-580.33884,-825.89842)" id="g6654">
      <path sodipodi:type="arc" style="fill:#808080;fill-opacity:1;fill-rule:nonzero;stroke:#666666;stroke-width:23.29999924;stroke-miterlimit:4;stroke-dasharray:none" id="path6656" sodipodi:cx="2817.1135" sodipodi:cy="70.630074" sodipodi:rx="271.52899" sodipodi:ry="271.52899" d="m 3088.6425,70.630074 c 0,149.961316 -121.5677,271.528996 -271.529,271.528996 -149.9613,0 -271.529,-121.56768 -271.529,-271.528996 0,-149.961322 121.5677,-271.528994 271.529,-271.528994 149.9613,0 271.529,121.567672 271.529,271.528994 z" transform="translate(-702.29217,-437.87043)"/>
      <path transform="matrix(0.88005501,0,0,0.79166666,-364.73666,-451.44011)" d="m 3088.6425,70.630074 c 0,149.961316 -121.5677,271.528996 -271.529,271.528996 -149.9613,0 -271.529,-121.56768 -271.529,-271.528996 0,-149.961322 121.5677,-271.528994 271.529,-271.528994 149.9613,0 271.529,121.567672 271.529,271.528994 z" sodipodi:ry="271.52899" sodipodi:rx="271.52899" sodipodi:cy="70.630074" sodipodi:cx="2817.1135" id="path6658" style="fill:url(#linearGradient6660);fill-opacity:1;fill-rule:nonzero;stroke:none" sodipodi:type="arc"/>
    </g>
    <g style="display:inline" id="g6664" transform="matrix(0.00778582,0,0,0.00778582,-580.33884,-812.30079)">
      <path transform="translate(-702.29217,-437.87043)" d="m 3088.6425,70.630074 c 0,149.961316 -121.5677,271.528996 -271.529,271.528996 -149.9613,0 -271.529,-121.56768 -271.529,-271.528996 0,-149.961322 121.5677,-271.528994 271.529,-271.528994 149.9613,0 271.529,121.567672 271.529,271.528994 z" sodipodi:ry="271.52899" sodipodi:rx="271.52899" sodipodi:cy="70.630074" sodipodi:cx="2817.1135" id="path6666" style="fill:#808080;fill-opacity:1;fill-rule:nonzero;stroke:#666666;stroke-width:23.29999924;stroke-miterlimit:4;stroke-dasharray:none" sodipodi:type="arc"/>
      <path sodipodi:type="arc" style="fill:url(#linearGradient6670);fill-opacity:1;fill-rule:nonzero;stroke:none" id="path6668" sodipodi:cx="2817.1135" sodipodi:cy="70.630074" sodipodi:rx="271.52899" sodipodi:ry="271.52899" d="m 3088.6425,70.630074 c 0,149.961316 -121.5677,271.528996 -271.529,271.528996 -149.9613,0 -271.529,-121.56768 -271.529,-271.528996 0,-149.961322 121.5677,-271.528994 271.529,-271.528994 149.9613,0 271.529,121.567672 271.529,271.528994 z" transform="matrix(0.88005501,0,0,0.79166666,-364.73666,-451.44011)"/>
    </g>
    <g style="display:inline" transform="matrix(0.00778582,0,0,0.00778582,-580.33884,-624.40615)" id="g6672">
      <path sodipodi:type="arc" style="fill:#808080;fill-opacity:1;fill-rule:nonzero;stroke:#666666;stroke-width:23.29999924;stroke-miterlimit:4;stroke-dasharray:none" id="path6674" sodipodi:cx="2817.1135" sodipodi:cy="70.630074" sodipodi:rx="271.52899" sodipodi:ry="271.52899" d="m 3088.6425,70.630074 c 0,149.961316 -121.5677,271.528996 -271.529,271.528996 -149.9613,0 -271.529,-121.56768 -271.529,-271.528996 0,-149.961322 121.5677,-271.528994 271.529,-271.528994 149.9613,0 271.529,121.567672 271.529,271.528994 z" transform="translate(-702.29217,-437.87043)"/>
      <path transform="matrix(0.88005501,0,0,0.79166666,-364.73666,-451.44011)" d="m 3088.6425,70.630074 c 0,149.961316 -121.5677,271.528996 -271.529,271.528996 -149.9613,0 -271.529,-121.56768 -271.529,-271.528996 0,-149.961322 121.5677,-271.528994 271.529,-271.528994 149.9613,0 271.529,121.567672 271.529,271.528994 z" sodipodi:ry="271.52899" sodipodi:rx="271.52899" sodipodi:cy="70.630074" sodipodi:cx="2817.1135" id="path6676" style="fill:url(#linearGradient6678);fill-opacity:1;fill-rule:nonzero;stroke:none" sodipodi:type="arc"/>
    </g>
    <g style="display:inline" id="g6680" transform="matrix(0.00778582,0,0,0.00778582,-580.33884,-612.04466)">
      <path transform="translate(-702.29217,-437.87043)" d="m 3088.6425,70.630074 c 0,149.961316 -121.5677,271.528996 -271.529,271.528996 -149.9613,0 -271.529,-121.56768 -271.529,-271.528996 0,-149.961322 121.5677,-271.528994 271.529,-271.528994 149.9613,0 271.529,121.567672 271.529,271.528994 z" sodipodi:ry="271.52899" sodipodi:rx="271.52899" sodipodi:cy="70.630074" sodipodi:cx="2817.1135" id="path6682" style="fill:#808080;fill-opacity:1;fill-rule:nonzero;stroke:#666666;stroke-width:23.29999924;stroke-miterlimit:4;stroke-dasharray:none" sodipodi:type="arc"/>
      <path sodipodi:type="arc" style="fill:url(#linearGradient6686);fill-opacity:1;fill-rule:nonzero;stroke:none" id="path6684" sodipodi:cx="2817.1135" sodipodi:cy="70.630074" sodipodi:rx="271.52899" sodipodi:ry="271.52899" d="m 3088.6425,70.630074 c 0,149.961316 -121.5677,271.528996 -271.529,271.528996 -149.9613,0 -271.529,-121.56768 -271.529,-271.528996 0,-149.961322 121.5677,-271.528994 271.529,-271.528994 149.9613,0 271.529,121.567672 271.529,271.528994 z" transform="matrix(0.88005501,0,0,0.79166666,-364.73666,-451.44011)"/>
    </g>
    <g style="display:inline" transform="matrix(0.00778582,0,0,0.00778582,-580.33884,-562.28968)" id="g6688">
      <path sodipodi:type="arc" style="fill:#808080;fill-opacity:1;fill-rule:nonzero;stroke:#666666;stroke-width:23.29999924;stroke-miterlimit:4;stroke-dasharray:none" id="path6690" sodipodi:cx="2817.1135" sodipodi:cy="70.630074" sodipodi:rx="271.52899" sodipodi:ry="271.52899" d="m 3088.6425,70.630074 c 0,149.961316 -121.5677,271.528996 -271.529,271.528996 -149.9613,0 -271.529,-121.56768 -271.529,-271.528996 0,-149.961322 121.5677,-271.528994 271.529,-271.528994 149.9613,0 271.529,121.567672 271.529,271.528994 z" transform="translate(-702.29217,-437.87043)"/>
      <path transform="matrix(0.88005501,0,0,0.79166666,-364.73666,-451.44011)" d="m 3088.6425,70.630074 c 0,149.961316 -121.5677,271.528996 -271.529,271.528996 -149.9613,0 -271.529,-121.56768 -271.529,-271.528996 0,-149.961322 121.5677,-271.528994 271.529,-271.528994 149.9613,0 271.529,121.567672 271.529,271.528994 z" sodipodi:ry="271.52899" sodipodi:rx="271.52899" sodipodi:cy="70.630074" sodipodi:cx="2817.1135" id="path6692" style="fill:url(#linearGradient6694);fill-opacity:1;fill-rule:nonzero;stroke:none" sodipodi:type="arc"/>
    </g>
    <path style="fill:#000000;stroke:none;display:inline" d="m -541.40749,-781.11471 c 0.82623,0.001 1.65847,0.0832 2.46443,0.2319 1.05664,0.1949 2.18717,0.47055 3.01815,1.19428 0.85392,0.74363 1.34627,1.89131 1.73712,2.99149 0.39707,1.11789 0.54241,2.34206 0.5754,3.53646 0,0.66507 -0.55436,1.08765 -0.82511,1.63489 -0.36533,0.57446 -0.73199,1.15263 -1.09656,1.72764 -0.65838,0.074 -0.93766,1.15364 -1.7153,0.71889 -0.15226,-0.0851 -0.39728,0.19668 -0.55373,0.31306 -0.65042,0.48381 -0.97374,1.41529 -1.29195,2.45813 l 0.42342,2.92193 0.0329,0 c 0,0 1.74564,1.08991 2.20388,1.99433 1.08482,2.14098 1.12844,4.83114 0.84685,7.24684 -0.30759,2.63884 -2.7142,7.43237 -2.7142,7.43237 l -4.24495,7.43235 c 0,1.3523 -0.39798,2.92561 0.51025,3.98866 l 4.24502,12.51094 -5.11348,1.48416 -0.0328,2.07549 0.51025,2.81757 c -0.18707,0.44996 -0.38162,0.89664 -0.57541,1.34501 l -0.0977,5.51921 c 0.23468,0.40917 0.47642,0.82023 0.67314,1.24065 l 0,1.29863 -0.70571,-0.32466 -0.0112,0.49859 0.56457,0.99716 c -0.18568,0.93945 -0.40043,1.87479 -0.61882,2.80598 l -0.0329,1.82041 0,1.26385 0,1.27544 -1.00967,0.17393 2.20388,0.18552 -2.04107,0.71887 2.37761,19.94332 -0.82511,-0.10438 0.40168,3.75676 c 0.15645,0.65637 0.32968,1.33418 0.52116,2.05233 -0.13576,0.26426 -0.11962,0.50761 -0.21714,0.78846 l 0.11941,1.07831 c 0,0 -0.46048,0.017 -1.21597,0.0463 -0.177,0.11332 -0.36994,0.23059 -0.60797,0.35945 -0.40777,-0.1202 -0.81414,-0.21037 -1.2268,-0.27827 -1.84869,0.0858 -4.19735,0.21287 -6.65513,0.41742 -1.13438,0.23283 -2.27407,0.50339 -3.40901,0.74208 0,0 -1.37262,0.54497 -1.99759,0.0812 -0.0433,-0.032 -0.0817,-0.0663 -0.11947,-0.10436 -0.50417,0.0308 -0.56289,-0.19731 -0.28228,-0.95078 0.014,-0.0644 0.0377,-0.12081 0.065,-0.18552 0.0182,-0.0455 0.0385,-0.10218 0.065,-0.15075 0.007,-0.0115 0.0147,-0.0233 0.0217,-0.0349 0.69886,-1.20502 3.77372,-3.26298 5.96033,-4.62637 l 2.29078,-2.15665 0.0433,-1.63491 -1.42225,-0.18551 -2.3667,0.7305 2.87702,-2.35379 -2.51882,-6.24966 -0.68397,-2.17985 0,-0.916 -0.53192,-1.54214 -0.48858,-0.82324 -0.56456,-0.96238 0,-1.29863 -0.24971,-0.71889 -0.89019,-0.66091 0,-1.57691 0.0545,-0.2203 -0.40168,-1.1595 0.2388,-3.10744 0.52116,-0.85803 -0.6514,-1.29863 -1.07481,-4.32492 -6.83976,6.50474 -1.07475,3.40892 -0.0761,1.33342 -1.72621,5.41484 -0.4885,0.4638 -1.25938,3.96546 0.0329,0.41741 -0.39085,3.08426 -0.82511,0.24351 -0.55366,1.72762 0.28221,0.78846 -0.54283,0.0349 -1.0205,3.22339 -1.68279,-0.74208 -1.37878,2.51613 -0.31486,0.83483 c 0,0 -0.62392,0.98455 -1.20505,1.95953 l -0.8686,1.57691 -0.0433,0.0696 c -0.0154,0.0304 -0.0252,0.0648 -0.0433,0.0928 l -0.59707,1.08992 c 0,0 -0.38897,-0.30314 -0.73829,-0.57975 -0.47376,-0.0541 -0.95668,-0.28543 -1.25937,-0.6725 -0.13471,-0.17227 -0.49935,-0.6035 -0.86853,-1.03193 -2.12811,-1.71079 -4.99722,-4.04521 -7.36084,-6.11056 -1.86456,-1.62926 -1.89951,-1.91108 -1.07475,-2.261 0,0 0.008,0 0.0112,0 0.15086,-0.6006 0.72074,-0.81197 1.30278,-0.48699 1.18611,-0.31356 3.2032,0.34582 4.5055,0.8696 l 1.41135,0.31309 1.06398,-1.4262 -2.06274,-0.90441 8.39218,-20.55781 c 0.39441,-0.53309 0.74639,-1.14758 1.08565,-1.79721 l 0.14114,-0.60294 0.35828,-0.38264 c 0.4049,-0.83514 0.79826,-1.68461 1.21596,-2.46972 l 0,-0.84643 1.41135,-0.83484 0.84685,-1.79722 1.83477,-2.67843 0,-1.22906 0.94451,-1.51894 2.96385,-3.01468 0.18462,-0.22031 -1.88909,-2.11028 2.03016,-2.5393 c 6.85702,-10.33342 5.32417,-10.93982 5.32417,-21.91194 l -11.59936,2.51366 -1.70447,-2.17985 -0.51025,3.81473 -2.20388,-2.53929 0,1.44937 3.06157,3.44369 -5.09181,-2.53929 3.38727,4.53362 -4.24496,-4.53362 -1.65021,-4.41767 -3.38727,0 c 0,0 -0.36086,0.0759 -0.51025,0.18552 -0.20811,0.15265 -0.26411,0.50264 -0.48858,0.62613 -0.43923,0.24171 -1.4765,0.10435 -1.4765,0.10435 l -0.52109,-0.2203 -0.71654,0.74208 -0.61882,0.54496 c 0,0 0.0252,0.72112 -0.2063,0.916 -0.11702,0.0985 -0.33569,0.108 -0.44509,0 -0.26187,-0.25836 -0.0869,-1.1363 -0.0869,-1.1363 l 0.53199,-0.88122 0.75996,-0.77686 c -0.3517,-0.31302 -0.47487,-0.39793 -0.41252,-0.916 l -0.41259,0.33625 -1.13997,1.17109 -0.67306,1.42618 c -0.12031,0.25619 -0.34402,-0.1274 -0.39085,-0.28987 -0.13276,-0.46014 0.47767,-1.35662 0.47767,-1.35662 l 1.06398,-1.10151 0.72738,-0.59134 0,-0.32466 -0.96625,0.66091 -1.03141,1.17109 c 0,0 -0.40049,1.46099 -0.79253,1.21747 l -0.22797,-0.15074 c -0.42986,-0.26704 0.54283,-1.42617 0.54283,-1.42617 l 0.99883,-1.28705 1.09649,-0.74207 -0.0329,-0.17393 -1.55249,1.02036 -0.85769,1.28704 c 0,0 -0.41629,1.29935 -0.73822,1.00876 l -0.26061,-0.2319 c -0.29102,-0.26271 0.41259,-1.1479 0.41259,-1.1479 l 0.72738,-1.05514 1.95425,-1.43778 1.58507,-0.6609 1.1399,0 2.47533,0.2203 3.75645,0.17392 17.13179,-3.36253 1.67196,-0.99716 -0.65146,0.26668 -4.7552,-0.90441 -6.27512,0.48225 -2.88793,0.79319 -1.68272,-0.74207 -4.53591,1.83488 2.59257,-2.60014 -6.22088,2.0407 3.61524,-2.60886 -4.79862,2.9799 1.21701,-4.70983 -1.06503,-2.44425 -0.17372,-0.0463 -1.6828,0.53337 c -0.86188,-0.0584 -1.71181,-0.27177 -2.56215,-0.44061 l -1.30279,0.76527 c -0.52395,0.18686 -0.59288,0.74928 -0.99883,1.21747 -0.40595,0.46818 -0.65943,0.13538 -0.61881,-0.18552 0.0405,-0.32091 0.35484,-0.69677 0.53199,-1.04355 0.51067,-0.2727 0.70522,-0.81721 1.21589,-1.08992 0.46187,-0.24295 0.0705,-0.39172 0.0545,-0.80005 -0.75024,0.35049 -1.0879,0.50868 -1.81304,0.916 -0.64818,0.19807 -0.9306,1.13334 -1.22679,1.44937 -0.29627,0.31603 -0.36806,-0.28008 -0.35828,-0.56816 0.01,-0.28807 0.26642,-0.63288 0.40169,-0.95078 0.93046,-0.78317 2.00143,-1.39033 3.05073,-1.98274 l -0.53199,-0.37103 -1.4765,0.46379 c -0.14436,0.19998 -0.21902,0.48572 -0.33653,0.71889 -0.087,0.53918 -0.6667,1.01096 -1.02057,0.89281 -0.35387,-0.11815 0,-0.63553 0,-0.95078 0.4072,-0.55911 0.86307,-1.01781 1.27027,-1.57691 0.17904,-0.0587 0.35548,-0.0991 0.55367,-0.11596 0.32695,0.0829 0.55233,-0.13528 0.67313,-0.4522 -0.29997,-0.1137 -1.10921,0.31037 -1.58507,0.42901 -1.10795,0.28476 -0.59938,1.35603 -0.99883,1.82041 -0.39945,0.46437 -0.57575,-0.59257 -0.53199,-0.76527 0.0496,-1.00462 0.65223,-1.32093 0.97709,-1.98273 l 2.62731,-0.84643 c 0.28102,0.0277 0.56492,0.13109 0.84685,0.18552 1.32627,0.25418 2.57565,0.82174 3.83236,1.32182 0.63182,0.28937 1.28049,0.49285 1.94335,0.67251 l 0.10863,-0.39423 c 6.35048,0.89214 13.41023,0.28877 19.34659,1.62329 l 2.55131,0.18552 16.15527,-3.26977 -3.23585,1.1363 0.48851,-0.59134 0.55373,0.0696 1.09649,-1.65808 c -0.97129,-0.95526 -2.54055,-0.38888 -3.00725,-1.76243 -0.14541,-0.42779 0.12038,-1.48365 0.87936,-1.78562 -0.007,-0.0159 -0.008,-0.0232 -0.0112,-0.0463 0.0203,0.005 0.044,0.0174 0.065,0.0232 0.0119,-0.004 0.021,-0.008 0.0328,-0.0116 0.0427,-0.0721 0.0738,-0.10647 0.0869,-0.11595 0,0.0243 -0.0217,0.0975 -0.0545,0.15074 0.57191,0.16947 1.29859,0.53839 1.30279,0.28987 0.55617,-0.1475 0.1303,-1.83787 -1.15081,-1.95955 0.44747,-0.67074 0.2776,-1.10524 0.32569,-1.29863 -1.62065,-1.10848 -0.15078,-2.00076 0.74913,-2.85236 0.11681,-1.3544 0.62524,-2.58433 1.51991,-3.52486 -0.39225,0.0382 -0.83553,-0.011 -0.34744,-0.35944 0.77394,-0.60212 1.608,-1.2391 2.59474,-1.32183 0.79617,-0.20643 1.61652,-0.29126 2.44275,-0.28987 z" id="path4333" inkscape:connector-curvature="0" sodipodi:nodetypes="cssscccsscccssccccccccccccccccccccccccccccccccccccccccccccccccccccccccccccccccccccccccccccccccccscsccccccccccccccccccccccccccccccccccsccccccscccccccccccccccccccccccccccccccccccccccccccccccccssccccsscccccscccccsccccccccccccccsccccccccccccccc"/>
  </g>
  <g inkscape:groupmode="layer" id="layer4" inkscape:label="Nabi" style="display:inline" transform="translate(663.65718,898.98468)"/>
  <g inkscape:groupmode="layer" id="layer5" inkscape:label="Doki" style="display:inline" transform="translate(663.65718,898.98468)"/>
  <g inkscape:groupmode="layer" id="layer6" inkscape:label="Eyes" style="display:inline" transform="translate(663.65718,898.98468)"/>
</svg>